<?xml version="1.0" encoding="UTF-8" standalone="no"?>
<!DOCTYPE svg PUBLIC "-//W3C//DTD SVG 1.1//EN" "http://www.w3.org/Graphics/SVG/1.1/DTD/svg11.dtd">
<svg width="100%" height="100%" viewBox="0 0 200 200" version="1.1" xmlns="http://www.w3.org/2000/svg" xmlns:xlink="http://www.w3.org/1999/xlink" xml:space="preserve" xmlns:serif="http://www.serif.com/" style="fill-rule:evenodd;clip-rule:evenodd;stroke-linecap:round;stroke-linejoin:round;stroke-miterlimit:1.5;">
    <g transform="matrix(15.0506,0,0,15.0506,-836.088,-1351.49)">
        <g transform="matrix(0.0664425,0,0,0.0664425,55.5518,89.7964)">
            <path d="M195.555,9.404L195.555,189.625C195.555,192.724 193.039,195.24 189.94,195.24L9.72,195.24C6.621,195.24 4.105,192.724 4.105,189.625L4.105,9.404C4.105,6.305 6.621,3.789 9.72,3.789L189.94,3.789C193.039,3.789 195.555,6.305 195.555,9.404Z" style="fill:rgb(237,237,237);"/>
        </g>
        <g transform="matrix(0.0664425,0,0,0.0664425,55.5518,89.7964)">
            <path d="M12.085,187.641L85.337,187.641" style="fill:none;stroke:rgb(130,17,31);stroke-width:7.37px;"/>
        </g>
        <g transform="matrix(10.0371,0,0,10.0371,57.0041,99.9311)">
            <path d="M0.429,0.056L0.429,-0.309L0.442,-0.309L0.363,-0.339L0.308,-0.265L0.308,0.092L0.33,0.092C0.392,0.092 0.429,0.064 0.429,0.056ZM0.539,-0.806L0.373,-0.852C0.31,-0.689 0.173,-0.493 0.042,-0.386L0.051,-0.377C0.229,-0.466 0.4,-0.637 0.498,-0.792C0.525,-0.79 0.534,-0.795 0.539,-0.806ZM0.31,-0.611L0.301,-0.606C0.334,-0.562 0.371,-0.497 0.379,-0.438C0.486,-0.355 0.596,-0.56 0.31,-0.611ZM0.684,-0.714L0.698,-0.714C0.583,-0.485 0.326,-0.284 0.028,-0.172L0.035,-0.159C0.403,-0.236 0.673,-0.417 0.827,-0.657C0.855,-0.659 0.866,-0.662 0.874,-0.674L0.761,-0.783L0.684,-0.714ZM0.847,-0.309L0.371,-0.309L0.371,-0.281L0.847,-0.281L0.847,-0.309ZM0.829,-0.026L0.371,-0.026L0.371,0.003L0.829,0.003L0.829,-0.026ZM0.749,-0.309L0.76,-0.309L0.76,0.079L0.78,0.079C0.822,0.079 0.882,0.053 0.883,0.045L0.883,-0.259C0.905,-0.263 0.92,-0.273 0.927,-0.281L0.807,-0.373L0.749,-0.309ZM0.775,-0.714L0.376,-0.714L0.355,-0.686L0.775,-0.686L0.775,-0.714Z" style="fill:rgb(40,38,25);fill-rule:nonzero;"/>
        </g>
    </g>
</svg>
